<svg id="Layer_1" data-name="Layer 1" xmlns="http://www.w3.org/2000/svg" viewBox="0 0 1024 1024"><defs><style>.cls-1{fill:#2c3e45;}</style></defs><title>Artboard 1</title><path class="cls-1" d="M983.13,471.11l-415-415A156.54,156.54,0,0,0,489.4,24c-.88-.1-1.75-.19-2.63-.27H149.4a155.89,155.89,0,0,0-53,15.81A157.86,157.86,0,0,0,26.7,109.24a156,156,0,0,0-15.8,53V463.88a156.19,156.19,0,0,0,24.79,62L469.76,960a157.27,157.27,0,0,0,205.56,4L982.26,657a157.33,157.33,0,0,0,.87-185.93ZM190,253.3A60.28,60.28,0,1,1,250.24,193,60.28,60.28,0,0,1,190,253.3Z"/></svg>